<svg width="88" height="42" viewBox="0 0 88 42" fill="none" xmlns="http://www.w3.org/2000/svg">
<path d="M12.7011 27.7375C15.3996 27.7375 17.5946 29.9271 17.5946 32.6174C17.5946 35.3081 15.3996 37.4968 12.7011 37.4968C10.003 37.4968 7.80762 35.3081 7.80762 32.6174C7.80762 29.9271 10.003 27.7375 12.7011 27.7375Z" fill="#1B1B35"/>
<path d="M3.29199 32.6173C3.29199 37.799 7.50464 41.9999 12.7017 41.9999C17.8984 41.9999 22.111 37.799 22.111 32.6173C22.111 27.4356 17.8984 23.2346 12.7017 23.2346C7.50507 23.2346 3.29199 27.4356 3.29199 32.6173ZM5.71647 32.6173C5.71647 28.7767 8.85005 25.6521 12.7017 25.6521C16.5534 25.6521 19.687 28.7767 19.687 32.6173C19.687 36.4579 16.5538 39.5824 12.7017 39.5824C8.84962 39.5824 5.71647 36.4579 5.71647 32.6173Z" fill="#1B1B35"/>
<path d="M72.4423 27.7375C75.1404 27.7375 77.3358 29.9271 77.3358 32.6174C77.3358 35.3081 75.1404 37.4968 72.4423 37.4968C69.7442 37.4968 67.5488 35.3081 67.5488 32.6174C67.5484 29.9271 69.7438 27.7375 72.4423 27.7375Z" fill="#1B1B35"/>
<path d="M63.0322 32.6173C63.0322 37.799 67.2449 41.9999 72.442 41.9999C77.6386 41.9999 81.8513 37.799 81.8513 32.6173C81.8513 27.4356 77.6386 23.2346 72.442 23.2346C67.2449 23.2346 63.0322 27.4356 63.0322 32.6173ZM65.4567 32.6173C65.4567 28.7767 68.5903 25.6521 72.442 25.6521C76.2936 25.6521 79.4268 28.7767 79.4268 32.6173C79.4268 36.4579 76.2936 39.5824 72.442 39.5824C68.5903 39.5824 65.4567 36.4579 65.4567 32.6173Z" fill="#1B1B35"/>
<path d="M0.5 22.0551V33.7549H2.19482C2.19482 33.7549 0.5 22.0551 12.7012 22.0551C24.9023 22.0551 23.7068 33.7549 23.7068 33.7549H61.7769C61.7769 33.7549 60.473 21.9249 72.4417 21.9249C84.4103 21.9249 83.0281 33.7549 83.0281 33.7549H86.5484C91.3725 20.3651 76.5096 14.5144 72.0769 13.9948C67.6441 13.4747 51.608 2.16474 45.089 0.994846C38.5701 -0.17505 20.9693 -0.825334 12.7016 2.03493C4.43389 4.89477 4.02067 19.5851 4.02067 19.5851L0.5 22.0551ZM74.0462 16.2842C74.0462 16.2842 78.6176 17.0267 81.851 20.1333C81.8514 20.1333 73.9109 22.6315 74.0462 16.2842ZM37.8833 3.46099C39.883 3.58994 41.7212 3.75091 43.2555 3.92682C52.0811 4.93959 63.7531 15.069 63.7531 15.069H37.8837V3.46099H37.8833ZM18.3796 3.80087C23.0714 3.08313 29.6768 3.05281 35.4451 3.32522V15.069H18.3796V3.80087ZM8.22133 15.069C8.22133 15.069 9.57573 9.39673 12.6232 5.88534C13.2587 5.15309 14.5793 4.59802 16.3482 4.18557V15.0686L8.22133 15.069Z" fill="#1B1B35"/>
</svg>
