<svg width="56" height="56" viewBox="0 0 56 56" fill="none" xmlns="http://www.w3.org/2000/svg">
<rect width="56" height="56" rx="28" fill="white" fill-opacity="0.1"/>
<path d="M11.333 43C12.1663 41.4848 15.333 38.4545 21.333 38.4545C27.333 38.4545 30.4997 34.8182 31.333 33M21.333 21.3333V16.3333C21.333 14.4924 22.8254 13 24.6663 13H41.333C43.174 13 44.6663 14.4924 44.6663 16.3333V29.6667C44.6663 31.5076 43.174 33 41.333 33H35.8992M27.9997 19.6667H37.9997M24.6663 29.6667C24.6663 31.5076 23.174 33 21.333 33C19.4921 33 17.9997 31.5076 17.9997 29.6667C17.9997 27.8257 19.4921 26.3333 21.333 26.3333C23.174 26.3333 24.6663 27.8257 24.6663 29.6667Z" stroke="white" stroke-width="2" stroke-linecap="round"/>
<path d="M33 26.3333H38" stroke="white" stroke-width="1.5" stroke-linecap="round"/>
</svg>
