<svg width="56" height="56" viewBox="0 0 56 56" fill="none" xmlns="http://www.w3.org/2000/svg">
<rect width="56" height="56" rx="28" fill="white" fill-opacity="0.1"/>
<path d="M43 37.9774V24.526C43 22.4617 42.0502 20.5131 40.4263 19.2458L32.0929 12.7424C29.6855 10.8636 26.3145 10.8636 23.9071 12.7424L15.5737 19.2458C13.9498 20.5131 13 22.4617 13 24.526V37.9774C13 41.6718 15.9848 44.6667 19.6667 44.6667H36.3333C40.0152 44.6667 43 41.6718 43 37.9774Z" stroke="white" stroke-width="2" stroke-linejoin="round"/>
<path d="M35.1742 34.3354C35.1742 38.1393 31.587 44.6667 27.9997 44.6667C24.4124 44.6667 20.8252 38.1393 20.8252 34.3354C20.8252 30.5315 24.0373 27.4479 27.9997 27.4479C31.9621 27.4479 35.1742 30.5315 35.1742 34.3354Z" stroke="white" stroke-width="2"/>
<path d="M30.1521 33.9049C30.1521 35.0936 29.1884 36.0573 27.9997 36.0573C26.811 36.0573 25.8473 35.0936 25.8473 33.9049C25.8473 32.7162 26.811 31.7526 27.9997 31.7526C29.1884 31.7526 30.1521 32.7162 30.1521 33.9049Z" stroke="white" stroke-width="2"/>
</svg>
