<svg width="98" height="55" viewBox="0 0 98 55" fill="none" xmlns="http://www.w3.org/2000/svg">
<path d="M32.8977 0.394355C28.2919 1.11804 23.1679 2.96016 19.3681 5.26281L16.7773 6.84177H19.3681C21.3256 6.90756 22.5922 6.38124 24.4345 4.93386C28.81 1.57857 34.0492 1.51278 36.8126 4.80228C38.4822 6.77598 39.058 9.53916 37.9641 9.99969C37.5035 10.1971 37.2156 9.73653 37.2156 8.94705C37.2156 7.82862 36.8702 7.56546 35.3733 7.56546C34.337 7.56546 33.0704 7.89441 32.6098 8.22336C31.9765 8.68389 32.322 8.88126 33.934 8.88126C36.3521 8.88126 36.9854 10.526 34.7976 11.0523C34.0492 11.1839 34.9703 11.3813 36.7551 11.4471C42.0518 11.5786 43.0881 10.4602 40.3246 7.49967C39.5186 6.6444 38.5974 5.3286 38.3671 4.60491C37.5035 2.10489 38.655 1.64436 46.0818 1.57857C51.2634 1.51278 52.53 1.3812 51.0331 0.920674C47.7514 -0.000385284 37.2732 -0.329334 32.8977 0.394355Z" fill="white"/>
<path d="M4.39941 3.15757C4.39941 4.47337 7.27805 6.05233 10.6173 6.44707C13.5535 6.84181 14.7049 6.11812 12.4596 5.26285C11.8263 5.06548 11.3081 4.60495 11.3081 4.276C11.3081 3.42073 13.1505 3.02599 17.6411 2.76284C19.7137 2.63126 17.5836 2.49968 12.9202 2.43389C6.29931 2.30231 4.39941 2.49968 4.39941 3.15757Z" fill="white"/>
<path d="M5.83758 9.14448L3.53467 9.99975L7.10417 9.93396C11.71 9.86817 13.2645 11.1182 15.9704 17.3024C19.252 24.8683 20.6338 26.0525 27.5425 27.5657C32.321 28.6183 36.639 29.2762 36.639 28.8815C36.639 28.7499 34.0482 27.763 30.9393 26.6446C22.7064 23.6841 18.7914 20.1314 18.5611 15.3287C18.5036 12.7629 17.5248 12.8287 30.0757 14.2761C36.236 14.9998 39.2297 15.6577 40.3236 16.4472C41.8205 17.5656 41.8781 17.5656 43.4325 15.9866C46.599 12.5656 49.0747 12.0392 52.529 13.8814C55.5804 15.5261 57.3076 19.5393 58.5166 27.763C59.3802 33.8157 59.7832 34.9999 61.0498 36.3157C61.9134 37.171 63.2951 37.8289 64.1587 37.8289L65.7132 37.7631L64.5042 36.6447C62.777 34.9999 61.971 33.0262 61.971 30.4604C61.971 27.6314 62.8345 26.6446 65.195 26.6446C66.5768 26.6446 67.6706 27.3025 69.2827 29.013C72.8522 32.9604 73.7158 33.3552 78.7822 33.6183L83.5607 33.8815L79.9336 32.9604C77.6883 32.4341 75.7884 31.5788 75.04 30.6578C73.8309 29.2762 73.8309 29.1446 74.8097 28.3551C75.3278 27.8946 78.2065 27.3025 81.2002 27.0393C90.5846 26.2499 90.6422 25.4604 81.3729 25.3946C68.9948 25.3288 63.6406 23.4209 58.9196 17.4998C56.3288 14.2761 56.0985 12.1708 58.2863 12.1708C60.1862 12.1708 61.7407 13.1577 64.6193 16.1182C67.0373 18.684 69.0524 19.4077 76.0763 20.4603C78.8398 20.8551 78.8973 20.7893 77.6307 19.7367C75.2702 17.763 64.6193 12.2366 61.1074 11.184C56.847 9.93396 54.3714 9.93396 48.1535 11.184C42.4538 12.3024 26.5062 12.4998 23.2821 11.4471C22.0731 11.1182 21.0943 10.3945 21.0943 9.93396C21.0943 9.40764 20.2883 8.88132 19.3096 8.61816C16.3158 7.96026 8.3132 8.28921 5.83758 9.14448Z" fill="white"/>
<path d="M66.2891 8.88127C66.4618 9.21022 67.2678 9.53917 68.0739 9.53917C70.3768 9.53917 76.3643 12.105 79.1854 14.276L81.8337 16.3155L80.1065 14.2103C79.1854 13.026 77.4582 11.4471 76.3643 10.7892L74.3493 9.47338L76.3643 9.93391C79.243 10.526 86.0365 13.8155 89.9515 16.5129C92.8877 18.5524 93.1755 18.6182 91.9665 17.1708C89.9515 14.6708 83.273 10.9865 78.3218 9.53917C73.6008 8.15758 65.6558 7.69705 66.2891 8.88127Z" fill="white"/>
<path d="M7.10462 14.276C9.69539 17.4339 10.2135 18.9471 10.6166 24.8682L11.0196 30.263L18.504 30.9867C30.0761 32.1709 31.3427 31.9077 22.5341 30.1972C14.1285 28.5524 13.0346 27.9603 13.0346 24.8682C13.0346 21.7761 10.6741 16.1839 8.54394 14.1444C5.78045 11.5129 4.85928 11.6444 7.10462 14.276Z" fill="white"/>
<path d="M1.63538 13.6181C0.541497 15.1971 -0.264521 20.1971 0.0809156 22.9603C0.59907 26.5129 2.49897 30.263 4.22615 31.184C5.95333 32.1051 8.25624 32.1051 8.71682 31.2498C8.94711 30.8551 8.42896 30.5919 7.56536 30.5919C4.05343 30.5919 2.09596 27.4998 2.09596 21.8419C2.09596 18.9471 2.38382 17.9602 3.53528 16.5129L4.91702 14.8023H3.42013C2.38382 14.8023 2.03839 14.5392 2.32625 13.8155C2.72926 12.6313 2.4414 12.5655 1.63538 13.6181Z" fill="white"/>
<path d="M44.1818 17.3682C40.2093 22.2367 40.4396 30.4604 44.7 35.3289C46.6574 37.6315 47.118 37.8289 50.0542 37.8289C52.4147 37.8289 53.5662 37.4999 54.5449 36.4473C55.8691 35.1973 55.8691 35.1315 54.66 35.7894C49.2482 38.8157 43.7212 33.2894 44.2394 25.4604C44.4697 22.3683 44.8151 21.513 46.3696 19.934C47.3483 18.9472 48.8452 18.0919 49.7664 18.0261C51.3208 18.0261 51.3208 18.0261 49.9966 17.3682C49.0179 16.9735 48.1543 17.1051 46.8877 17.8287C44.7575 19.0788 44.2394 18.6182 45.7938 16.8419C46.4847 16.0524 46.715 15.4603 46.3696 15.4603C46.0241 15.4603 45.0454 16.3156 44.1818 17.3682Z" fill="white"/>
<path d="M95.3634 22.1708C95.6512 23.355 95.9967 26.184 96.2269 28.4209C96.6875 33.2893 96.8027 33.1578 89.3758 34.8683C81.3732 36.6446 83.6185 36.9736 93.521 35.3946C94.8452 35.1972 96.5148 34.5393 97.1481 33.9472C98.242 32.9604 98.242 32.6972 97.3784 27.763C96.63 23.0919 95.7088 20.0656 95.0755 20.0656C94.9603 20.0656 95.0755 21.0524 95.3634 22.1708Z" fill="white"/>
<path d="M31.9181 32.3682C32.609 32.4998 33.6453 32.4998 34.221 32.3682C34.7392 32.1709 34.1634 32.0393 32.8968 32.1051C31.6302 32.1051 31.1696 32.2367 31.9181 32.3682Z" fill="white"/>
<path d="M4.6862 49.3421C3.07416 54.2763 3.18931 56.579 4.80134 53.75C5.9528 51.8421 8.71629 51.7763 9.57988 53.6184C10.2707 55.0658 11.3071 55.3948 11.3071 54.1448C11.3071 53.6842 10.6162 51.3158 9.75259 48.8816C7.67998 42.8289 6.70124 42.8947 4.6862 49.3421ZM8.14056 49.4737C8.42842 50.7237 8.2557 50.9868 7.33454 50.9868C6.01037 50.9868 5.9528 50.7895 6.47095 48.4868C6.87396 46.7763 7.50726 47.171 8.14056 49.4737Z" fill="white"/>
<path d="M11.3081 44.5394C11.3081 44.671 12.0566 46.9737 12.9201 49.671C15.0503 56.25 15.9139 56.3158 17.8714 50.1974C19.5986 44.671 19.6561 44.4078 18.6198 44.4078C18.2168 44.4078 17.4108 46.0526 16.8351 48.0921C16.2594 50.1316 15.6261 51.5789 15.4533 51.3158C15.223 51.1184 14.6473 49.5395 14.1292 47.8289C13.611 46.0526 12.805 44.671 12.2868 44.5394C11.7111 44.4078 11.3081 44.4078 11.3081 44.5394Z" fill="white"/>
<path d="M20.519 44.9999C20.519 45.3289 21.0948 45.7236 21.8432 45.8552C22.9947 46.0526 23.1098 46.4473 23.2825 50.4605C23.3977 52.9605 23.6855 54.9342 23.9734 54.9342C24.2613 54.9342 24.5491 52.9605 24.6643 50.4605C24.837 46.4473 24.9521 46.0526 26.1612 45.8552C28.8095 45.3947 27.3126 44.4078 23.9734 44.4078C22.0735 44.4078 20.519 44.671 20.519 44.9999Z" fill="white"/>
<path d="M29.7313 45.7236C28.1768 47.5 28.1768 51.5789 29.7313 53.4868C32.4948 56.8421 37.2157 54.2105 37.2157 49.3421C37.2157 45.1315 32.322 42.7631 29.7313 45.7236ZM34.5674 46.7763C35.7764 48.0921 35.7188 50.921 34.5098 52.4342C33.3584 53.8816 32.7251 53.9474 31.3433 52.5C29.4434 50.5263 30.5373 45.7236 32.8978 45.7236C33.3008 45.7236 34.1068 46.1842 34.5674 46.7763Z" fill="white"/>
<path d="M38.3662 44.8025C38.3662 44.9999 39.0571 47.3683 39.8631 50.0657C41.8206 56.3158 42.7993 56.4474 44.5265 50.7894C45.2174 48.5526 45.9658 46.1841 46.1385 45.5262C46.4264 44.7368 46.2537 44.4078 45.6779 44.4078C45.0446 44.4078 44.4113 45.6578 43.778 48.0262C43.2023 49.9999 42.569 51.6447 42.3963 51.6447C42.2236 51.6447 41.5903 49.9999 41.0146 48.0262C40.4388 45.8552 39.6904 44.4078 39.1722 44.4078C38.7692 44.4078 38.3662 44.6052 38.3662 44.8025Z" fill="white"/>
<path d="M48.7298 45.7236C47.1753 47.4999 47.1753 51.5789 48.7298 53.4868C50.457 55.5921 53.4508 55.4605 55.0052 53.2236C57.4809 49.6052 55.6385 44.4078 51.8387 44.4078C50.6297 44.4078 49.4207 44.9341 48.7298 45.7236ZM53.5659 46.7762C54.7749 48.092 54.7174 50.921 53.5083 52.4342C52.3569 53.8815 51.3782 53.9473 50.2267 52.5657C48.4419 50.5263 49.5934 45.7236 51.8963 45.7236C52.2993 45.7236 53.1053 46.1841 53.5659 46.7762Z" fill="white"/>
<path d="M57.9414 49.671V54.9342H60.5322C63.929 54.9342 65.4259 53.2895 65.4259 49.671C65.4259 46.0526 63.929 44.4078 60.5322 44.4078H57.9414V49.671ZM62.7775 46.5789C63.526 47.171 63.7562 48.0921 63.5835 50C63.4108 52.4342 63.2957 52.6316 61.5685 52.8289L59.6686 53.0263V49.8026C59.6686 45.592 60.5322 44.671 62.7775 46.5789Z" fill="white"/>
<path d="M67.7285 49.671C67.7285 52.7632 67.959 54.9342 68.3048 54.9342C68.6506 54.9342 68.8812 52.7632 68.8812 49.671C68.8812 46.5789 68.6506 44.4078 68.3048 44.4078C67.959 44.4078 67.7285 46.5789 67.7285 49.671Z" fill="white"/>
<path d="M70.6074 44.9999C70.6074 45.3289 71.1831 45.7236 71.9316 45.8552C73.083 46.0526 73.1982 46.4473 73.3709 50.4605C73.4861 53.8816 73.7163 54.9342 74.3496 54.9342C75.0405 54.9342 75.2132 53.9474 75.2132 50.3289C75.2132 46.1842 75.3284 45.7236 76.3647 45.7236C76.998 45.7236 77.5161 45.3947 77.5161 45.0657C77.5161 44.671 75.9617 44.4078 74.0618 44.4078C72.1619 44.4078 70.6074 44.671 70.6074 44.9999Z" fill="white"/>
<path d="M79.2427 49.671V54.9342H82.697C85.403 54.9342 86.1514 54.7368 86.1514 53.9474C86.1514 53.2237 85.4605 52.9605 83.5606 52.9605C81.3729 52.9605 80.9699 52.7632 80.9699 51.6447C80.9699 50.5263 81.3729 50.3289 83.2728 50.3289C84.9424 50.3289 85.5757 50.0658 85.5757 49.3421C85.5757 48.6184 84.9424 48.3552 83.2152 48.3552C81.3153 48.3552 80.9123 48.1579 81.085 47.171C81.2001 46.3815 81.9486 45.9868 83.7333 45.8552C87.418 45.5263 86.612 44.4078 82.697 44.4078H79.2427V49.671Z" fill="white"/>
<path d="M88.4546 49.7368V55L91.5059 54.8026C94.9603 54.6053 95.536 53.421 92.3695 53.0921L90.1818 52.8947V48.6184C90.1818 45.3289 90.0091 44.4078 89.3182 44.4078C88.6273 44.4078 88.4546 45.4605 88.4546 49.7368Z" fill="white"/>
</svg>
