<svg width="71" height="70" viewBox="0 0 71 70" fill="none" xmlns="http://www.w3.org/2000/svg">
<path d="M23.833 52.5H47.1663M23.833 52.5C23.833 58.9434 29.0564 64.1667 35.4997 64.1667C41.943 64.1667 47.1663 58.9434 47.1663 52.5M23.833 52.5V46.0505C23.833 44.1436 22.8606 42.3976 21.475 41.0875C17.5389 37.3657 15.083 32.0947 15.083 26.25C15.083 14.9742 24.2239 5.83337 35.4997 5.83337C46.7755 5.83337 55.9163 14.9742 55.9163 26.25C55.9163 32.0947 53.4605 37.3657 49.5244 41.0875C48.1388 42.3976 47.1663 44.1436 47.1663 46.0505V52.5M29.6663 26.25L35.4997 32.0834M35.4997 32.0834L41.333 26.25M35.4997 32.0834V52.5" stroke="#1B1B35" stroke-width="3" stroke-linecap="round" stroke-linejoin="round"/>
</svg>
