<svg width="71" height="70" viewBox="0 0 71 70" fill="none" xmlns="http://www.w3.org/2000/svg">
<path d="M64.667 32.0834L64.667 37.9167" stroke="#1B1B35" stroke-width="1.5" stroke-linecap="round"/>
<path d="M6.33301 32.0834L6.33301 37.9167" stroke="#1B1B35" stroke-width="1.5" stroke-linecap="round"/>
<path d="M35.4997 5.83337V64.1667M64.6663 35L6.33301 35M32.583 64.1667H38.4163M32.583 5.83337H38.4163M32.583 21.875H38.4163M32.583 48.125H38.4163M48.6247 32.0834V37.9167M22.3747 32.0834V37.9167M17.9997 5.83337L20.9163 8.75004M20.9163 8.75004L23.833 5.83337M20.9163 8.75004V11.6667M58.833 46.6667L61.7497 49.5834M61.7497 49.5834L64.6663 46.6667M61.7497 49.5834L58.833 52.5M61.7497 49.5834L64.6663 52.5" stroke="#1B1B35" stroke-width="3" stroke-linecap="round"/>
</svg>
