<svg width="71" height="70" viewBox="0 0 71 70" fill="none" xmlns="http://www.w3.org/2000/svg">
<path d="M41.333 61.25H35.4997C29.0564 61.25 23.833 56.0267 23.833 49.5833V20.4167C23.833 13.9733 29.0564 8.75 35.4997 8.75H52.9997C59.443 8.75 64.6663 13.9733 64.6663 20.4167V40.8333M6.33301 20.4167H15.083M35.4997 20.4167H52.9997M35.4997 32.0833H52.9997M35.4997 43.75H44.2497M47.1663 55.4167L52.2787 59.5066C53.4975 60.4816 55.268 60.3243 56.2958 59.1497L64.6663 49.5833M10.708 61.25L12.7497 58.5278C14.2643 56.5083 15.083 54.0521 15.083 51.5278V13.125C15.083 10.7088 13.1243 8.75 10.708 8.75C8.29176 8.75 6.33301 10.7088 6.33301 13.125V51.5278C6.33301 54.0521 7.15175 56.5083 8.66634 58.5278L10.708 61.25Z" stroke="#1B1B35" stroke-width="3" stroke-linecap="round" stroke-linejoin="round"/>
</svg>
