<svg width="70" height="70" viewBox="0 0 70 70" fill="none" xmlns="http://www.w3.org/2000/svg">
<path d="M46 40.1667C52.9242 43.6171 58.3333 51.4792 58.3333 61.25V67.0834H11.6667V61.25C11.6667 51.4675 17.0904 43.5938 24 40.1667M51.5 22.5001C52.1358 24.3259 52.2171 24.2054 52.2171 26.2529C52.2171 35.9159 44.5083 43.75 35 43.75C25.4858 43.75 17.7712 35.9159 17.7712 26.2529C17.7712 24.2463 17.8875 24.2938 18.5 22.5001M17.5 23.3334H52.5L61.25 11.6667C55.6733 6.60627 46.0542 2.91669 35 2.91669C23.8117 2.91669 14.0933 6.69669 8.75 11.6667L17.5 23.3334ZM35 14.5834C35.7735 14.5834 36.5154 14.2761 37.0624 13.7291C37.6094 13.1821 37.9167 12.4402 37.9167 11.6667H32.0833C32.0833 12.4402 32.3906 13.1821 32.9376 13.7291C33.4846 14.2761 34.2265 14.5834 35 14.5834Z" stroke="black" stroke-width="3"/>
</svg>
