<svg width="50" height="50" viewBox="0 0 50 50" fill="none" xmlns="http://www.w3.org/2000/svg">
<path d="M43.75 37.4718V20.6574C43.75 18.0771 42.5627 15.6414 40.5328 14.0572L30.1162 5.92796C27.1069 3.57951 22.8931 3.57951 19.8838 5.92796L9.46716 14.0572C7.43727 15.6414 6.25 18.0771 6.25 20.6574V37.4718C6.25 42.0897 9.98096 45.8333 14.5833 45.8333H35.4167C40.019 45.8333 43.75 42.0897 43.75 37.4718Z" stroke="white" stroke-width="2" stroke-linejoin="round"/>
<path d="M33.9675 32.9192C33.9675 37.6741 29.4834 45.8333 24.9994 45.8333C20.5153 45.8333 16.0312 37.6741 16.0312 32.9192C16.0312 28.1644 20.0464 24.3098 24.9994 24.3098C29.9523 24.3098 33.9675 28.1644 33.9675 32.9192Z" stroke="white" stroke-width="2"/>
<path d="M27.6898 32.3811C27.6898 33.867 26.4853 35.0716 24.9994 35.0716C23.5135 35.0716 22.3089 33.867 22.3089 32.3811C22.3089 30.8952 23.5135 29.6907 24.9994 29.6907C26.4853 29.6907 27.6898 30.8952 27.6898 32.3811Z" stroke="white" stroke-width="2"/>
</svg>
