<svg width="50" height="50" viewBox="0 0 50 50" fill="none" xmlns="http://www.w3.org/2000/svg">
<path d="M32.1626 24.933V22.4675L35.5877 24.0078C36.1178 24.2462 36.7252 24.2422 37.2521 23.9969L40.7451 22.3708V24.933C40.7451 27.1422 38.9543 28.933 36.7451 28.933L36.1626 28.933C33.9535 28.9331 32.1626 27.1422 32.1626 24.933Z" stroke="white" stroke-width="2" stroke-linecap="round"/>
<path d="M44.837 19.6058L37.709 16.4378C36.8903 16.0739 35.9557 16.0739 35.137 16.4378L28.009 19.6058C27.5911 19.7915 27.5911 20.3846 28.009 20.5703L35.137 23.7383C35.9557 24.1022 36.8903 24.1022 37.709 23.7383L44.837 20.5703C45.2549 20.3846 45.2549 19.7915 44.837 19.6058Z" stroke="white" stroke-width="2" stroke-linecap="round" stroke-linejoin="round"/>
<path d="M32.2306 32.1928C32.4453 32.1172 32.6654 32.0472 32.8906 31.9831C33.2558 31.8792 33.6467 31.9908 33.9144 32.2527L35.6473 33.9481C36.0743 34.3658 36.7717 34.3658 37.1987 33.9481L38.9316 32.2527C39.1993 31.9908 39.5902 31.8792 39.9554 31.9831C43.0156 32.8538 45.1504 34.8209 45.1504 37.1082C45.1504 38.2741 44.1735 39.2191 42.9685 39.2191H34.7146" stroke="white" stroke-width="2" stroke-linecap="round" stroke-linejoin="round"/>
<line x1="27.8633" y1="21.0881" x2="27.8633" y2="25.6847" stroke="white" stroke-width="2" stroke-linecap="round"/>
<path d="M11.4536 22.6845V17.0878L16.9434 19.1337C17.3939 19.3016 17.8898 19.3016 18.3403 19.1337L23.8301 17.0878V22.6845C23.8301 24.8937 22.0392 26.6845 19.8301 26.6845H15.4536C13.2445 26.6845 11.4536 24.8937 11.4536 22.6845Z" stroke="white" stroke-width="2" stroke-linecap="round"/>
<path d="M29.9752 12.6552L19.5271 8.01159C18.327 7.47823 16.9572 7.47823 15.7571 8.01159L5.309 12.6552C4.69651 12.9274 4.69651 13.7967 5.309 14.0689L15.7571 18.7125C16.9572 19.2459 18.327 19.2459 19.5271 18.7125L29.9752 14.0689C30.5877 13.7967 30.5877 12.9274 29.9752 12.6552Z" stroke="white" stroke-width="2" stroke-linecap="round" stroke-linejoin="round"/>
<path d="M13.965 31.2312L16.5051 33.7163C17.131 34.3285 18.1532 34.3285 18.7791 33.7163L21.3192 31.2312C21.7116 30.8473 22.2845 30.6837 22.8199 30.836C27.3054 32.1122 30.4346 34.9957 30.4346 38.3484C30.4346 40.0572 29.0027 41.4425 27.2365 41.4425H8.04775C6.28148 41.4425 4.84963 40.0572 4.84963 38.3484C4.84963 34.9957 7.97877 32.1122 12.4643 30.836C12.9997 30.6837 13.5726 30.8473 13.965 31.2312Z" stroke="white" stroke-width="2" stroke-linecap="round" stroke-linejoin="round"/>
<line x1="6.10547" y1="14.6066" x2="6.10547" y2="22.0312" stroke="white" stroke-width="2" stroke-linecap="round"/>
</svg>
