<svg width="51" height="50" viewBox="0 0 51 50" fill="none" xmlns="http://www.w3.org/2000/svg">
<path d="M46.3333 25C46.3333 13.494 37.0059 4.16663 25.5 4.16663" stroke="white" stroke-width="2" stroke-linecap="round"/>
<path d="M46.3337 25C46.3337 36.5059 37.0063 45.8333 25.5003 45.8333C13.9944 45.8333 4.66699 36.5059 4.66699 25C4.66699 13.494 13.9944 4.16663 25.5003 4.16663" stroke="white" stroke-width="2" stroke-linecap="round" stroke-linejoin="round" stroke-dasharray="0.5 3"/>
<path d="M28.625 25C28.625 26.7259 27.2259 28.125 25.5 28.125C23.7741 28.125 22.375 26.7259 22.375 25C22.375 23.2741 23.7741 21.875 25.5 21.875C27.2259 21.875 28.625 23.2741 28.625 25Z" stroke="white" stroke-width="2"/>
<path d="M28.6247 25H33.833M25.4997 12.5V21.875" stroke="white" stroke-width="2" stroke-linecap="round" stroke-linejoin="round"/>
</svg>
