<svg width="50" height="50" viewBox="0 0 50 50" fill="none" xmlns="http://www.w3.org/2000/svg">
<path d="M45.8699 22.9102C45.1541 21.96 42.4949 21.3057 41.3699 19.5957C40.2449 17.8857 39.324 14.1826 36.4607 12.7598C33.5974 11.3369 28.1248 10.9375 24.9998 10.9375C21.8748 10.9375 16.406 11.3281 13.5388 12.7568C10.6716 14.1855 9.75464 17.8857 8.62964 19.5928C7.50464 21.2998 4.84546 21.96 4.12964 22.9102C3.41382 23.8604 2.90991 29.8672 3.21655 32.8125C3.52319 35.7578 4.09546 37.5 4.09546 37.5H12.4939C13.8689 37.5 14.3162 36.9834 17.1287 36.7188C20.2146 36.4258 23.2419 36.3281 24.9998 36.3281C26.7576 36.3281 29.8826 36.4258 32.9666 36.7188C35.7791 36.9854 36.241 37.5 37.6013 37.5H45.9021C45.9021 37.5 46.4744 35.7578 46.781 32.8125C47.0876 29.8672 46.5818 23.8604 45.8699 22.9102ZM39.0623 37.5H44.531V39.0625H39.0623V37.5ZM5.46851 37.5H10.9373V39.0625H5.46851V37.5Z" stroke="white" stroke-width="1.5" stroke-linecap="round" stroke-linejoin="round"/>
<path d="M35.593 30.1914C35.0159 29.5244 33.135 28.9677 30.6448 28.5947C28.1545 28.2217 27.2463 28.125 25.0198 28.125C22.7932 28.125 21.7805 28.2851 19.3938 28.5947C17.0071 28.9043 15.2151 29.455 14.4465 30.1914C13.2932 31.3086 14.9827 32.5625 16.3088 32.7148C17.594 32.8613 20.1633 32.8076 25.0305 32.8076C29.8977 32.8076 32.467 32.8613 33.7522 32.7148C35.0764 32.5537 36.6448 31.3867 35.593 30.1914ZM42.1458 23.7353C42.1403 23.6578 42.1063 23.585 42.0505 23.5309C41.9946 23.4768 41.9207 23.4453 41.843 23.4424C40.6897 23.4013 39.5188 23.4834 37.4417 24.0957C36.3819 24.4051 35.3868 24.9033 34.5042 25.5664C34.2815 25.7402 34.3606 26.2099 34.6399 26.2597C36.352 26.4605 38.0743 26.5616 39.7981 26.5625C40.8323 26.5625 41.8997 26.2695 42.0979 25.3476C42.199 24.8161 42.2151 24.2719 42.1458 23.7353ZM7.85474 23.7353C7.86022 23.6578 7.89416 23.585 7.95003 23.5309C8.0059 23.4768 8.07978 23.4453 8.15748 23.4424C9.3108 23.4013 10.4817 23.4834 12.5588 24.0957C13.6186 24.4051 14.6137 24.9033 15.4963 25.5664C15.719 25.7402 15.6399 26.2099 15.3606 26.2597C13.6485 26.4605 11.9262 26.5616 10.2024 26.5625C9.16822 26.5625 8.10084 26.2695 7.90259 25.3476C7.80152 24.8161 7.78537 24.2719 7.85474 23.7353Z" fill="white"/>
<path d="M42.1875 18.75H43.75M6.25 18.75H7.8125M7.61719 20.6055C7.61719 20.6055 12.1436 19.4336 25 19.4336C37.8564 19.4336 42.3828 20.6055 42.3828 20.6055" stroke="white" stroke-width="1.5" stroke-linecap="round" stroke-linejoin="round"/>
</svg>
